<svg class="svg-icon" style="width: 1em;height: 1em;vertical-align: middle;fill: currentColor;overflow: hidden;" viewBox="0 0 1024 1024" version="1.1" xmlns="http://www.w3.org/2000/svg"><path d="M810.666667 170.666667m0 42.666666l0 0q0 42.666667-42.666667 42.666667l-256 0q-42.666667 0-42.666667-42.666667l0 0q0-42.666667 42.666667-42.666666l256 0q42.666667 0 42.666667 42.666666Z" fill="#516280" /><path d="M981.333333 341.333333m0 42.666667l0 0q0 42.666667-42.666666 42.666667l-426.666667 0q-42.666667 0-42.666667-42.666667l0 0q0-42.666667 42.666667-42.666667l426.666667 0q42.666667 0 42.666666 42.666667Z" fill="#007BFC" /><path d="M128 213.333333l0 170.666667 170.666667 0 0-170.666667-170.666667 0m0-85.333333l170.666667 0a85.333333 85.333333 0 0 1 85.333333 85.333333l0 170.666667a85.333333 85.333333 0 0 1-85.333333 85.333333l-170.666667 0a85.333333 85.333333 0 0 1-85.333333-85.333333l0-170.666667a85.333333 85.333333 0 0 1 85.333333-85.333333z" fill="#516280" /><path d="M810.666667 597.333333m0 42.666667l0 0q0 42.666667-42.666667 42.666667l-256 0q-42.666667 0-42.666667-42.666667l0 0q0-42.666667 42.666667-42.666667l256 0q42.666667 0 42.666667 42.666667Z" fill="#516280" /><path d="M981.333333 768m0 42.666667l0 0q0 42.666667-42.666666 42.666666l-426.666667 0q-42.666667 0-42.666667-42.666666l0 0q0-42.666667 42.666667-42.666667l426.666667 0q42.666667 0 42.666666 42.666667Z" fill="#007BFC" /><path d="M128 640l0 170.666667 170.666667 0 0-170.666667-170.666667 0m0-85.333333l170.666667 0a85.333333 85.333333 0 0 1 85.333333 85.333333l0 170.666667a85.333333 85.333333 0 0 1-85.333333 85.333333l-170.666667 0a85.333333 85.333333 0 0 1-85.333333-85.333333l0-170.666667a85.333333 85.333333 0 0 1 85.333333-85.333333z" fill="#516280" /></svg>